<svg width="24" height="24" viewBox="0 0 48 48" xmlns="http://www.w3.org/2000/svg">
  <path fill="#EA4335" d="M24 9.5c3.54 0 6.73 1.23 9.23 3.25l6.9-6.9C35.9 2.25 30.47 0 24 0 14.62 0 6.51 5.38 2.56 13.22l8.02 6.23C12.43 13.04 17.77 9.5 24 9.5z"/>
  <path fill="#4285F4" d="M46.1 24.5c0-1.64-.15-3.21-.43-4.73H24v9.01h12.45c-.54 2.91-2.18 5.37-4.61 7.03l7.07 5.49C43.2 37.07 46.1 31.27 46.1 24.5z"/>
  <path fill="#FBBC05" d="M10.58 28.45c-.48-1.45-.76-2.99-.76-4.45s.27-3 .76-4.45l-8.02-6.23C.92 16.46 0 20.12 0 24s.92 7.54 2.56 10.68l8.02-6.23z"/>
  <path fill="#34A853" d="M24 48c6.48 0 11.9-2.13 15.87-5.8l-7.07-5.49c-1.96 1.32-4.48 2.1-8.8 2.1-6.23 0-11.57-3.54-13.42-8.45l-8.02 6.23C6.51 42.62 14.62 48 24 48z"/>
</svg>
